<?xml version="1.0" standalone="no"?>
<!DOCTYPE svg PUBLIC "-//W3C//DTD SVG 20010904//EN"
 "http://www.w3.org/TR/2001/REC-SVG-20010904/DTD/svg10.dtd">
<svg version="1.0" xmlns="http://www.w3.org/2000/svg"
 width="719.92603pt" height="361.17599" viewBox="0 0 270.000000 186.000000"
 preserveAspectRatio="xMidYMid meet">

<g transform="translate(0.000000,186.000000) scale(0.100000,-0.100000)"
fill="#000000" stroke="none">
<path d="M437 1663 c-4 -3 -7 -51 -7 -105 l0 -98 300 0 301 0 -3 103 -3 102
-291 3 c-160 1 -293 -1 -297 -5z m243 -58 c10 -12 10 -19 2 -27 -7 -7 -12 -22
-12 -35 0 -13 -4 -23 -9 -23 -16 0 -18 34 -3 53 19 21 8 35 -13 17 -12 -10
-15 -10 -15 3 0 14 12 24 31 26 4 1 12 -6 19 -14z m70 -10 c0 -8 -4 -17 -10
-20 -5 -3 -10 -17 -10 -31 0 -13 -4 -24 -8 -24 -10 0 -8 27 3 53 10 23 -3 36
-15 17 -8 -13 -10 -12 -10 2 0 18 18 28 38 20 6 -2 12 -10 12 -17z m60 15 c12
-8 13 -13 3 -30 -7 -11 -13 -29 -13 -40 0 -11 -4 -20 -10 -20 -14 0 -13 43 2
58 6 6 8 15 3 19 -4 5 -10 2 -12 -5 -3 -6 -9 -9 -14 -6 -6 3 -5 11 2 20 13 16
19 17 39 4z m70 -5 c10 -12 10 -19 2 -27 -7 -7 -12 -22 -12 -35 0 -28 -16 -30
-23 -3 -3 10 1 24 9 31 21 17 17 31 -6 24 -21 -7 -28 10 -7 18 20 9 24 8 37
-8z m-330 -35 c0 -31 3 -38 15 -34 8 4 15 2 15 -3 0 -5 -15 -10 -32 -11 -33
-2 -33 -2 -31 40 1 24 2 44 2 46 1 1 8 2 16 2 11 0 15 -11 15 -40z"/>
<path d="M2128 1544 c-30 -16 -37 -48 -14 -57 17 -7 26 1 26 24 0 24 26 31 45
13 22 -22 19 -36 -15 -79 -33 -42 -37 -60 -15 -69 18 -6 45 2 45 15 0 5 -7 9
-15 9 -24 0 -18 13 20 43 79 63 12 150 -77 101z"/>
<path d="M1976 1451 c-4 -5 -2 -12 3 -15 5 -4 12 -2 15 3 4 5 2 12 -3 15 -5 4
-12 2 -15 -3z"/>
<path d="M1945 1368 c-4 -10 -14 -18 -22 -18 -11 0 -9 -7 8 -25 15 -15 25 -20
28 -12 2 7 11 17 20 24 15 11 14 12 -1 13 -9 0 -18 8 -21 18 -4 16 -4 16 -12
0z"/>
<path d="M2157 1353 c-11 -10 -8 -41 4 -49 6 -3 18 1 27 9 13 13 13 19 2 31
-14 17 -23 20 -33 9z"/>
<path d="M2340 1177 c0 -9 -7 -17 -15 -17 -8 0 -15 -4 -15 -10 0 -5 7 -10 15
-10 8 0 15 -8 15 -17 0 -14 3 -13 20 5 l21 22 -21 22 c-17 18 -20 19 -20 5z"/>
<path d="M1155 1158 c-3 -7 -4 -166 -3 -353 l3 -340 213 -3 212 -2 0 -54 0
-54 -47 -7 c-27 -4 -61 -13 -78 -20 -26 -12 6 -13 240 -13 234 0 266 1 240 13
-16 7 -51 16 -77 20 l-48 7 0 54 0 54 218 2 217 3 0 350 0 350 -543 3 c-430 2
-544 0 -547 -10z m1040 -343 l0 -300 -495 0 -495 0 -3 290 c-1 159 0 295 3
302 3 11 106 13 497 11 l493 -3 0 -300z"/>
<path d="M1490 1045 c0 -13 30 -15 210 -15 180 0 210 2 210 15 0 13 -30 15
-210 15 -180 0 -210 -2 -210 -15z"/>
<path d="M1274 738 l1 -43 45 0 45 0 3 44 3 44 -25 -16 c-14 -10 -33 -17 -43
-17 -16 0 -16 -1 0 -17 15 -16 18 -16 37 2 20 18 20 18 20 -8 0 -25 -3 -27
-39 -27 -39 0 -40 1 -44 40 l-4 40 1 -42z"/>
<path d="M2376 1071 c-4 -5 -2 -12 3 -15 5 -4 12 -2 15 3 4 5 2 12 -3 15 -5 4
-12 2 -15 -3z"/>
<path d="M951 726 c-8 -10 -9 -16 -1 -21 5 -3 13 1 16 9 3 9 10 16 15 16 12 0
11 -47 -1 -55 -13 -8 -13 -35 1 -35 6 0 9 6 6 13 -2 6 5 22 16 34 11 12 17 29
14 37 -8 20 -51 21 -66 2z"/>
<path d="M780 655 c0 -7 -7 -16 -16 -19 -9 -4 -12 -11 -7 -18 4 -7 6 -21 5
-30 -2 -11 3 -18 12 -18 9 0 16 -7 16 -15 0 -18 12 -19 28 -3 9 9 12 9 12 -1
0 -17 25 -8 25 10 1 8 6 13 12 12 6 -1 14 4 17 12 3 8 1 15 -5 15 -6 0 -8 9
-4 20 5 14 2 20 -9 20 -9 0 -16 6 -16 13 0 8 -13 13 -35 14 -22 1 -35 -4 -35
-12z m57 -41 c8 -21 -13 -42 -28 -27 -13 13 -5 43 11 43 6 0 13 -7 17 -16z"/>
<path d="M970 620 c0 -5 5 -10 10 -10 6 0 10 5 10 10 0 6 -4 10 -10 10 -5 0
-10 -4 -10 -10z"/>
<path d="M1632 229 c2 -6 8 -10 13 -10 5 0 11 4 13 10 2 6 -4 11 -13 11 -9 0
-15 -5 -13 -11z"/>
<path d="M1682 229 c2 -6 8 -10 13 -10 5 0 11 4 13 10 2 6 -4 11 -13 11 -9 0
-15 -5 -13 -11z"/>
<path d="M1732 229 c2 -6 8 -10 13 -10 5 0 11 4 13 10 2 6 -4 11 -13 11 -9 0
-15 -5 -13 -11z"/>
</g>
</svg>
