<?xml version="1.0" standalone="no"?>
<!DOCTYPE svg PUBLIC "-//W3C//DTD SVG 20010904//EN"
 "http://www.w3.org/TR/2001/REC-SVG-20010904/DTD/svg10.dtd">
<svg version="1.0" xmlns="http://www.w3.org/2000/svg"
 width="62px" height="62px" viewBox="0 0 512.000000 512.000000"
 preserveAspectRatio="xMidYMid meet">

<g transform="translate(0.000000,512.000000) scale(0.100000,-0.100000)"
fill="#000000" stroke="none">
<path d="M530 4436 c-152 -43 -281 -147 -348 -281 -57 -115 -55 -46 -55 -1420
0 -1161 2 -1266 18 -1320 54 -187 180 -316 375 -384 40 -14 180 -16 1220 -18
l1175 -2 -35 27 c-113 87 -209 198 -256 295 l-28 57 -911 0 -910 0 605 605
c333 333 610 603 617 601 6 -3 112 -85 235 -183 123 -97 239 -185 258 -195 44
-23 116 -23 160 0 19 10 467 366 995 790 l960 773 3 -324 2 -325 57 -7 c74 -9
173 -40 247 -76 32 -16 60 -29 62 -29 3 0 3 228 2 508 -3 495 -4 508 -25 565
-57 152 -178 273 -328 330 l-60 22 -1995 2 c-1588 1 -2004 -1 -2040 -11z
m3830 -363 c-1 -8 -1774 -1435 -1788 -1440 -7 -3 -1767 1389 -1807 1428 -19
19 3 19 1788 19 994 0 1807 -3 1807 -7z m-3263 -759 c323 -257 590 -468 593
-471 5 -5 -1172 -1183 -1182 -1183 -5 0 -8 477 -8 1060 0 583 2 1060 5 1060 2
0 269 -210 592 -466z"/>
<path d="M4505 2753 c-223 -31 -399 -239 -383 -453 l3 -48 -232 -116 -233
-116 -64 44 c-105 72 -212 97 -326 76 -142 -26 -254 -109 -317 -238 -37 -75
-38 -78 -38 -191 0 -109 2 -120 31 -181 104 -219 357 -314 577 -216 29 13 69
37 89 55 20 17 41 31 47 31 6 0 112 -51 236 -112 l225 -113 0 -60 c0 -179 97
-333 257 -408 92 -42 209 -49 311 -18 180 55 302 222 302 415 0 129 -44 230
-139 319 -153 143 -391 155 -559 27 l-53 -40 -232 117 -232 118 -3 65 -3 65
236 118 c129 64 237 117 239 117 2 0 21 -14 42 -31 219 -175 537 -103 661 149
37 75 38 78 38 191 0 110 -2 119 -32 181 -43 86 -84 135 -157 182 -84 54 -204
84 -291 71z m120 -282 c107 -49 136 -176 59 -261 -44 -48 -82 -64 -144 -58
-164 16 -207 238 -61 315 53 28 92 29 146 4z m-1205 -611 c56 -28 83 -72 87
-139 5 -73 -24 -125 -87 -159 -91 -48 -193 -8 -234 92 -18 41 -19 52 -7 94 29
110 142 163 241 112z m1219 -610 c73 -37 106 -127 76 -205 -42 -113 -182 -147
-268 -67 -41 39 -57 74 -57 130 0 124 134 201 249 142z"/>
</g>
</svg>
