<?xml version="1.0" standalone="no"?>
<!DOCTYPE svg PUBLIC "-//W3C//DTD SVG 20010904//EN"
 "http://www.w3.org/TR/2001/REC-SVG-20010904/DTD/svg10.dtd">
<svg version="1.0" xmlns="http://www.w3.org/2000/svg"
 width="62px" height="62px" viewBox="0 0 512.000000 512.000000"
 preserveAspectRatio="xMidYMid meet">

<g transform="translate(0.000000,512.000000) scale(0.100000,-0.100000)"
fill="#000000" stroke="none">
<path d="M920 5101 c-251 -53 -467 -228 -575 -465 -54 -118 -70 -194 -69 -341
0 -104 4 -146 22 -210 30 -104 87 -218 132 -267 31 -32 43 -38 77 -38 46 0 28
-11 360 222 116 81 216 148 222 148 5 0 37 -39 71 -87 l61 -88 -38 -30 c-70
-54 -225 -209 -301 -300 -321 -382 -502 -885 -502 -1390 0 -685 327 -1336 877
-1747 l100 -74 -45 -65 c-133 -189 -152 -221 -152 -252 0 -71 65 -126 134
-113 42 8 64 32 175 193 l84 121 76 -35 c307 -141 600 -206 931 -206 331 0
627 65 926 203 l82 38 83 -121 c111 -161 133 -185 175 -193 69 -13 134 42 134
113 0 31 -19 63 -152 252 l-45 64 101 76 c276 206 504 484 657 796 293 601
293 1298 0 1900 -80 162 -176 313 -283 440 -75 89 -228 243 -300 301 l-38 30
61 87 c33 48 65 87 71 87 5 0 112 -71 236 -159 320 -224 299 -211 345 -211 33
0 46 6 77 38 45 48 102 163 132 267 30 105 32 304 4 410 -51 193 -179 377
-339 485 -326 218 -763 174 -1042 -105 -39 -38 -81 -91 -94 -117 -20 -42 -21
-52 -11 -83 14 -42 39 -63 292 -239 109 -76 200 -141 202 -145 4 -6 -87 -145
-114 -174 -4 -5 -52 17 -107 47 -359 201 -798 298 -1203 266 -331 -26 -649
-121 -912 -271 -49 -28 -93 -47 -98 -43 -4 5 -33 45 -64 89 l-56 80 22 19 c13
10 104 75 203 144 234 162 261 185 275 227 10 31 9 41 -11 81 -12 26 -54 79
-93 118 -198 200 -481 285 -756 227z m315 -226 c33 -9 83 -26 110 -39 51 -24
155 -96 155 -108 0 -6 -925 -657 -946 -665 -18 -7 -47 108 -52 207 -3 65 1
117 12 164 48 203 216 378 421 437 77 22 222 24 300 4z m2939 -1 c207 -53 383
-233 432 -440 11 -47 15 -99 12 -164 -5 -99 -34 -214 -52 -207 -21 8 -946 659
-946 665 0 12 104 84 155 108 117 54 277 70 399 38z m-1426 -674 c452 -49 841
-228 1165 -539 306 -294 500 -664 579 -1101 18 -101 18 -508 0 -610 -221
-1250 -1490 -1970 -2657 -1508 -643 254 -1107 846 -1209 1539 -21 140 -21 408
0 548 98 669 526 1235 1143 1511 302 136 659 194 979 160z"/>
<path d="M2371 3849 c-526 -63 -996 -393 -1240 -870 -192 -376 -226 -828 -92
-1229 235 -702 926 -1158 1655 -1092 566 51 1051 382 1306 891 181 361 211
821 81 1211 -186 557 -669 975 -1241 1074 -117 21 -357 28 -469 15z m79 -275
c0 -73 1 -77 34 -110 28 -28 42 -34 76 -34 34 0 48 6 76 34 33 33 34 37 34
111 l0 77 58 -6 c141 -17 331 -75 465 -142 58 -30 196 -119 242 -157 l30 -25
-53 -55 c-47 -51 -52 -60 -52 -102 0 -38 5 -52 29 -75 57 -58 109 -52 186 21
l53 50 29 -38 c96 -124 182 -283 231 -429 33 -97 62 -234 62 -289 l0 -33 -75
-4 c-69 -3 -78 -6 -108 -36 -26 -27 -32 -40 -32 -77 0 -37 6 -50 32 -77 30
-30 39 -33 108 -36 l75 -4 0 -37 c0 -52 -35 -207 -66 -298 -47 -137 -135 -298
-227 -416 l-29 -38 -53 50 c-77 73 -129 79 -186 21 -24 -23 -29 -37 -29 -75 0
-42 5 -51 52 -102 l53 -55 -30 -25 c-60 -50 -197 -135 -278 -173 -135 -63
-280 -105 -434 -125 l-53 -7 0 77 c0 74 -1 78 -34 111 -48 48 -104 48 -152 0
-33 -33 -34 -37 -34 -111 l0 -77 -52 7 c-154 20 -293 60 -435 126 -80 37 -217
121 -278 172 l-30 25 53 55 c47 51 52 60 52 102 0 38 -5 52 -29 75 -57 58
-109 52 -186 -21 l-53 -50 -29 38 c-96 124 -182 283 -231 429 -33 98 -62 235
-62 290 l0 34 63 0 c74 0 103 13 135 60 30 45 24 92 -18 134 -27 28 -37 31
-105 34 l-75 4 0 33 c0 18 7 70 16 115 38 203 131 409 262 583 l44 58 53 -50
c77 -73 129 -79 186 -21 24 23 29 37 29 75 0 42 -5 51 -51 100 -44 47 -50 57
-39 70 20 25 187 133 259 169 148 74 378 141 494 145 l27 1 0 -76z"/>
<path d="M1877 2950 c-39 -33 -49 -68 -36 -114 6 -21 81 -103 231 -253 l223
-223 0 -93 c0 -107 17 -149 85 -211 58 -52 103 -69 180 -69 77 0 122 17 180
69 68 62 85 104 85 211 l0 93 106 107 c59 60 112 118 118 130 33 64 -13 149
-84 155 -57 4 -71 -4 -189 -121 l-121 -120 -47 10 c-33 7 -63 7 -95 0 l-48
-10 -225 223 c-124 123 -235 229 -247 235 -39 20 -80 13 -116 -19z m732 -656
c12 -15 21 -32 21 -39 0 -27 -41 -65 -70 -65 -29 0 -70 38 -70 65 0 27 41 65
70 65 19 0 36 -9 49 -26z"/>
</g>
</svg>
